<svg width="212" height="32" viewBox="0 0 212 32" fill="none" xmlns="http://www.w3.org/2000/svg">
<path d="M30 6.62012H2C1.17139 6.62012 0.5 7.292 0.5 8.12012V11.8896C0.5 12.7178 1.17139 13.3896 2 13.3896C3.43896 13.3896 4.60986 14.5605 4.60986 16C4.60986 17.4394 3.43896 18.6103 2 18.6103C1.17139 18.6103 0.5 19.2822 0.5 20.1103V23.8799C0.5 24.708 1.17139 25.3799 2 25.3799H30C30.8286 25.3799 31.5 24.708 31.5 23.8799V20.1103C31.5 19.2822 30.8286 18.6103 30 18.6103C28.561 18.6103 27.3901 17.4394 27.3901 16C27.3901 14.5605 28.561 13.3896 30 13.3896C30.8286 13.3896 31.5 12.7178 31.5 11.8896V8.12012C31.5 7.29199 30.8286 6.62012 30 6.62012ZM28.5 10.5937C26.1328 11.251 24.3901 13.4258 24.3901 16C24.3901 18.5742 26.1328 20.749 28.5 21.4062V22.3799H3.5V21.4062C5.86719 20.749 7.60986 18.5742 7.60986 16C7.60986 13.4258 5.86719 11.251 3.5 10.5937V9.62012H28.5V10.5937Z" fill="#F46B5B"/>
<path d="M21 20.9951C21.8286 20.9951 22.5 20.3232 22.5 19.4951V12.5049C22.5 11.6768 21.8286 11.0049 21 11.0049C20.1714 11.0049 19.5 11.6768 19.5 12.5049V19.4951C19.5 20.3232 20.1714 20.9951 21 20.9951Z" fill="#F46B5B"/>
<path d="M56.802 19.71H51.33L50.322 22.5H48.594L53.13 10.026H55.02L59.538 22.5H57.81L56.802 19.71ZM56.334 18.378L54.066 12.042L51.798 18.378H56.334ZM65.1869 20.988L68.2469 12.636H69.9929L66.1229 22.5H64.2149L60.3449 12.636H62.1089L65.1869 20.988ZM70.9928 17.532C70.9928 16.524 71.1968 15.642 71.6048 14.886C72.0128 14.118 72.5708 13.524 73.2788 13.104C73.9988 12.684 74.7968 12.474 75.6728 12.474C76.5368 12.474 77.2868 12.66 77.9228 13.032C78.5588 13.404 79.0328 13.872 79.3448 14.436V12.636H81.0008V22.5H79.3448V20.664C79.0208 21.24 78.5348 21.72 77.8868 22.104C77.2508 22.476 76.5068 22.662 75.6548 22.662C74.7788 22.662 73.9868 22.446 73.2788 22.014C72.5708 21.582 72.0128 20.976 71.6048 20.196C71.1968 19.416 70.9928 18.528 70.9928 17.532ZM79.3448 17.55C79.3448 16.806 79.1948 16.158 78.8948 15.606C78.5948 15.054 78.1868 14.634 77.6708 14.346C77.1668 14.046 76.6088 13.896 75.9968 13.896C75.3848 13.896 74.8268 14.04 74.3228 14.328C73.8188 14.616 73.4168 15.036 73.1168 15.588C72.8168 16.14 72.6668 16.788 72.6668 17.532C72.6668 18.288 72.8168 18.948 73.1168 19.512C73.4168 20.064 73.8188 20.49 74.3228 20.79C74.8268 21.078 75.3848 21.222 75.9968 21.222C76.6088 21.222 77.1668 21.078 77.6708 20.79C78.1868 20.49 78.5948 20.064 78.8948 19.512C79.1948 18.948 79.3448 18.294 79.3448 17.55ZM84.6148 11.034C84.3028 11.034 84.0388 10.926 83.8228 10.71C83.6068 10.494 83.4988 10.23 83.4988 9.918C83.4988 9.606 83.6068 9.342 83.8228 9.126C84.0388 8.91 84.3028 8.802 84.6148 8.802C84.9148 8.802 85.1668 8.91 85.3708 9.126C85.5868 9.342 85.6948 9.606 85.6948 9.918C85.6948 10.23 85.5868 10.494 85.3708 10.71C85.1668 10.926 84.9148 11.034 84.6148 11.034ZM85.4068 12.636V22.5H83.7688V12.636H85.4068ZM89.8365 9.18V22.5H88.1985V9.18H89.8365ZM92.0162 17.532C92.0162 16.524 92.2202 15.642 92.6282 14.886C93.0362 14.118 93.5942 13.524 94.3022 13.104C95.0222 12.684 95.8202 12.474 96.6962 12.474C97.5602 12.474 98.3102 12.66 98.9462 13.032C99.5822 13.404 100.056 13.872 100.368 14.436V12.636H102.024V22.5H100.368V20.664C100.044 21.24 99.5582 21.72 98.9102 22.104C98.2742 22.476 97.5302 22.662 96.6782 22.662C95.8022 22.662 95.0102 22.446 94.3022 22.014C93.5942 21.582 93.0362 20.976 92.6282 20.196C92.2202 19.416 92.0162 18.528 92.0162 17.532ZM100.368 17.55C100.368 16.806 100.218 16.158 99.9182 15.606C99.6182 15.054 99.2102 14.634 98.6942 14.346C98.1902 14.046 97.6322 13.896 97.0202 13.896C96.4082 13.896 95.8502 14.04 95.3462 14.328C94.8422 14.616 94.4402 15.036 94.1402 15.588C93.8402 16.14 93.6902 16.788 93.6902 17.532C93.6902 18.288 93.8402 18.948 94.1402 19.512C94.4402 20.064 94.8422 20.49 95.3462 20.79C95.8502 21.078 96.4082 21.222 97.0202 21.222C97.6322 21.222 98.1902 21.078 98.6942 20.79C99.2102 20.49 99.6182 20.064 99.9182 19.512C100.218 18.948 100.368 18.294 100.368 17.55ZM106.43 14.472C106.766 13.884 107.258 13.404 107.906 13.032C108.554 12.66 109.292 12.474 110.12 12.474C111.008 12.474 111.806 12.684 112.514 13.104C113.222 13.524 113.78 14.118 114.188 14.886C114.596 15.642 114.8 16.524 114.8 17.532C114.8 18.528 114.596 19.416 114.188 20.196C113.78 20.976 113.216 21.582 112.496 22.014C111.788 22.446 110.996 22.662 110.12 22.662C109.268 22.662 108.518 22.476 107.87 22.104C107.234 21.732 106.754 21.258 106.43 20.682V22.5H104.792V9.18H106.43V14.472ZM113.126 17.532C113.126 16.788 112.976 16.14 112.676 15.588C112.376 15.036 111.968 14.616 111.452 14.328C110.948 14.04 110.39 13.896 109.778 13.896C109.178 13.896 108.62 14.046 108.104 14.346C107.6 14.634 107.192 15.06 106.88 15.624C106.58 16.176 106.43 16.818 106.43 17.55C106.43 18.294 106.58 18.948 106.88 19.512C107.192 20.064 107.6 20.49 108.104 20.79C108.62 21.078 109.178 21.222 109.778 21.222C110.39 21.222 110.948 21.078 111.452 20.79C111.968 20.49 112.376 20.064 112.676 19.512C112.976 18.948 113.126 18.288 113.126 17.532ZM118.594 9.18V22.5H116.956V9.18H118.594ZM130.386 17.19C130.386 17.502 130.368 17.832 130.332 18.18H122.448C122.508 19.152 122.838 19.914 123.438 20.466C124.05 21.006 124.788 21.276 125.652 21.276C126.36 21.276 126.948 21.114 127.416 20.79C127.896 20.454 128.232 20.01 128.424 19.458H130.188C129.924 20.406 129.396 21.18 128.604 21.78C127.812 22.368 126.828 22.662 125.652 22.662C124.716 22.662 123.876 22.452 123.132 22.032C122.4 21.612 121.824 21.018 121.404 20.25C120.984 19.47 120.774 18.57 120.774 17.55C120.774 16.53 120.978 15.636 121.386 14.868C121.794 14.1 122.364 13.512 123.096 13.104C123.84 12.684 124.692 12.474 125.652 12.474C126.588 12.474 127.416 12.678 128.136 13.086C128.856 13.494 129.408 14.058 129.792 14.778C130.188 15.486 130.386 16.29 130.386 17.19ZM128.694 16.848C128.694 16.224 128.556 15.69 128.28 15.246C128.004 14.79 127.626 14.448 127.146 14.22C126.678 13.98 126.156 13.86 125.58 13.86C124.752 13.86 124.044 14.124 123.456 14.652C122.88 15.18 122.55 15.912 122.466 16.848H128.694ZM147.715 9.954L142.981 22.5H141.091L136.357 9.954H138.103L142.045 20.772L145.987 9.954H147.715ZM153.813 22.662C152.889 22.662 152.049 22.452 151.293 22.032C150.549 21.612 149.961 21.018 149.529 20.25C149.109 19.47 148.899 18.57 148.899 17.55C148.899 16.542 149.115 15.654 149.547 14.886C149.991 14.106 150.591 13.512 151.347 13.104C152.103 12.684 152.949 12.474 153.885 12.474C154.821 12.474 155.667 12.684 156.423 13.104C157.179 13.512 157.773 14.1 158.205 14.868C158.649 15.636 158.871 16.53 158.871 17.55C158.871 18.57 158.643 19.47 158.187 20.25C157.743 21.018 157.137 21.612 156.369 22.032C155.601 22.452 154.749 22.662 153.813 22.662ZM153.813 21.222C154.401 21.222 154.953 21.084 155.469 20.808C155.985 20.532 156.399 20.118 156.711 19.566C157.035 19.014 157.197 18.342 157.197 17.55C157.197 16.758 157.041 16.086 156.729 15.534C156.417 14.982 156.009 14.574 155.505 14.31C155.001 14.034 154.455 13.896 153.867 13.896C153.267 13.896 152.715 14.034 152.211 14.31C151.719 14.574 151.323 14.982 151.023 15.534C150.723 16.086 150.573 16.758 150.573 17.55C150.573 18.354 150.717 19.032 151.005 19.584C151.305 20.136 151.701 20.55 152.193 20.826C152.685 21.09 153.225 21.222 153.813 21.222ZM169.773 12.636V22.5H168.135V21.042C167.823 21.546 167.385 21.942 166.821 22.23C166.269 22.506 165.657 22.644 164.985 22.644C164.217 22.644 163.527 22.488 162.915 22.176C162.303 21.852 161.817 21.372 161.457 20.736C161.109 20.1 160.935 19.326 160.935 18.414V12.636H162.555V18.198C162.555 19.17 162.801 19.92 163.293 20.448C163.785 20.964 164.457 21.222 165.309 21.222C166.185 21.222 166.875 20.952 167.379 20.412C167.883 19.872 168.135 19.086 168.135 18.054V12.636H169.773ZM171.926 17.55C171.926 16.53 172.13 15.642 172.538 14.886C172.946 14.118 173.51 13.524 174.23 13.104C174.962 12.684 175.796 12.474 176.732 12.474C177.944 12.474 178.94 12.768 179.72 13.356C180.512 13.944 181.034 14.76 181.286 15.804H179.522C179.354 15.204 179.024 14.73 178.532 14.382C178.052 14.034 177.452 13.86 176.732 13.86C175.796 13.86 175.04 14.184 174.464 14.832C173.888 15.468 173.6 16.374 173.6 17.55C173.6 18.738 173.888 19.656 174.464 20.304C175.04 20.952 175.796 21.276 176.732 21.276C177.452 21.276 178.052 21.108 178.532 20.772C179.012 20.436 179.342 19.956 179.522 19.332H181.286C181.022 20.34 180.494 21.15 179.702 21.762C178.91 22.362 177.92 22.662 176.732 22.662C175.796 22.662 174.962 22.452 174.23 22.032C173.51 21.612 172.946 21.018 172.538 20.25C172.13 19.482 171.926 18.582 171.926 17.55ZM188.368 12.456C189.112 12.456 189.784 12.618 190.384 12.942C190.984 13.254 191.452 13.728 191.788 14.364C192.136 15 192.31 15.774 192.31 16.686V22.5H190.69V16.92C190.69 15.936 190.444 15.186 189.952 14.67C189.46 14.142 188.788 13.878 187.936 13.878C187.072 13.878 186.382 14.148 185.866 14.688C185.362 15.228 185.11 16.014 185.11 17.046V22.5H183.472V9.18H185.11V14.04C185.434 13.536 185.878 13.146 186.442 12.87C187.018 12.594 187.66 12.456 188.368 12.456ZM203.986 17.19C203.986 17.502 203.968 17.832 203.932 18.18H196.048C196.108 19.152 196.438 19.914 197.038 20.466C197.65 21.006 198.388 21.276 199.252 21.276C199.96 21.276 200.548 21.114 201.016 20.79C201.496 20.454 201.832 20.01 202.024 19.458H203.788C203.524 20.406 202.996 21.18 202.204 21.78C201.412 22.368 200.428 22.662 199.252 22.662C198.316 22.662 197.476 22.452 196.732 22.032C196 21.612 195.424 21.018 195.004 20.25C194.584 19.47 194.374 18.57 194.374 17.55C194.374 16.53 194.578 15.636 194.986 14.868C195.394 14.1 195.964 13.512 196.696 13.104C197.44 12.684 198.292 12.474 199.252 12.474C200.188 12.474 201.016 12.678 201.736 13.086C202.456 13.494 203.008 14.058 203.392 14.778C203.788 15.486 203.986 16.29 203.986 17.19ZM202.294 16.848C202.294 16.224 202.156 15.69 201.88 15.246C201.604 14.79 201.226 14.448 200.746 14.22C200.278 13.98 199.756 13.86 199.18 13.86C198.352 13.86 197.644 14.124 197.056 14.652C196.48 15.18 196.15 15.912 196.066 16.848H202.294ZM207.786 14.238C208.074 13.674 208.482 13.236 209.01 12.924C209.55 12.612 210.204 12.456 210.972 12.456V14.148H210.54C208.704 14.148 207.786 15.144 207.786 17.136V22.5H206.148V12.636H207.786V14.238Z" fill="#383838"/>
</svg>
