<svg width="162" height="32" viewBox="0 0 162 32" fill="none" xmlns="http://www.w3.org/2000/svg">
<path d="M8.66602 25.333H3.66602C3.11402 25.333 2.66602 24.885 2.66602 24.333C2.66602 23.781 3.11402 23.333 3.66602 23.333H8.66602C9.21802 23.333 9.66602 23.781 9.66602 24.333C9.66602 24.885 9.21802 25.333 8.66602 25.333ZM18.666 25.333H13.9993C13.4473 25.333 12.9993 24.885 12.9993 24.333C12.9993 23.781 13.4473 23.333 13.9993 23.333H17.858L20.43 11.333H6.33268C5.78068 11.333 5.33268 10.885 5.33268 10.333C5.33268 9.78101 5.78068 9.33301 6.33268 9.33301H21.666C21.9687 9.33301 22.254 9.47034 22.4433 9.70367C22.634 9.93967 22.7073 10.2463 22.6433 10.5423L19.6433 24.5423C19.5447 25.0037 19.138 25.333 18.666 25.333Z" fill="#F46B5B"/>
<path d="M29.9993 25.333H28.666C28.114 25.333 27.666 24.885 27.666 24.333C27.666 23.781 28.114 23.333 28.666 23.333H29.1913L29.998 19.5663C29.9446 17.2223 28.022 15.333 25.666 15.333H21.6166L19.902 23.333H23.3326C23.8846 23.333 24.3326 23.781 24.3326 24.333C24.3326 24.885 23.8846 25.333 23.3326 25.333H18.666C18.3633 25.333 18.078 25.1957 17.8886 24.9623C17.698 24.7263 17.6246 24.4197 17.6886 24.1237L19.8313 14.1237C19.93 13.6623 20.3366 13.333 20.8086 13.333H25.666C29.158 13.333 31.9993 16.1743 31.9993 19.6663C31.9993 19.737 31.9926 19.8063 31.9766 19.8757L30.9766 24.5423C30.878 25.0037 30.4713 25.333 29.9993 25.333Z" fill="#F46B5B"/>
<path d="M26 28C24.1627 28 22.6667 26.5053 22.6667 24.6667C22.6667 22.828 24.1627 21.3333 26 21.3333C27.8373 21.3333 29.3333 22.828 29.3333 24.6667C29.3333 26.5053 27.8373 28 26 28ZM26 23.3333C25.2653 23.3333 24.6667 23.9307 24.6667 24.6667C24.6667 25.4027 25.2653 26 26 26C26.7347 26 27.3333 25.4027 27.3333 24.6667C27.3333 23.9307 26.7347 23.3333 26 23.3333ZM11.3333 28C9.496 28 8 26.5053 8 24.6667C8 22.828 9.496 21.3333 11.3333 21.3333C13.1707 21.3333 14.6667 22.828 14.6667 24.6667C14.6667 26.5053 13.1707 28 11.3333 28ZM11.3333 23.3333C10.5987 23.3333 10 23.9307 10 24.6667C10 25.4027 10.5987 26 11.3333 26C12.068 26 12.6667 25.4027 12.6667 24.6667C12.6667 23.9307 12.068 23.3333 11.3333 23.3333ZM8.33333 14H3.66667C3.11467 14 2.66667 13.552 2.66667 13C2.66667 12.448 3.11467 12 3.66667 12H8.33333C8.88533 12 9.33333 12.448 9.33333 13C9.33333 13.552 8.88533 14 8.33333 14ZM8.33333 18H2.33333C1.78133 18 1.33333 17.552 1.33333 17C1.33333 16.448 1.78133 16 2.33333 16H8.33333C8.88533 16 9.33333 16.448 9.33333 17C9.33333 17.552 8.88533 18 8.33333 18ZM8.33333 22H1C0.448 22 0 21.552 0 21C0 20.448 0.448 20 1 20H8.33333C8.88533 20 9.33333 20.448 9.33333 21C9.33333 21.552 8.88533 22 8.33333 22Z" fill="#F46B5B"/>
<path d="M56.478 9.954V11.286H51.024V15.516H55.452V16.848H51.024V22.5H49.386V9.954H56.478ZM60.0943 14.238C60.3823 13.674 60.7903 13.236 61.3183 12.924C61.8583 12.612 62.5123 12.456 63.2803 12.456V14.148H62.8483C61.0123 14.148 60.0943 15.144 60.0943 17.136V22.5H58.4563V12.636H60.0943V14.238ZM74.1712 17.19C74.1712 17.502 74.1532 17.832 74.1172 18.18H66.2332C66.2932 19.152 66.6232 19.914 67.2232 20.466C67.8352 21.006 68.5732 21.276 69.4372 21.276C70.1452 21.276 70.7332 21.114 71.2012 20.79C71.6812 20.454 72.0172 20.01 72.2092 19.458H73.9732C73.7092 20.406 73.1812 21.18 72.3892 21.78C71.5972 22.368 70.6132 22.662 69.4372 22.662C68.5012 22.662 67.6612 22.452 66.9172 22.032C66.1852 21.612 65.6092 21.018 65.1892 20.25C64.7692 19.47 64.5592 18.57 64.5592 17.55C64.5592 16.53 64.7632 15.636 65.1712 14.868C65.5792 14.1 66.1492 13.512 66.8812 13.104C67.6252 12.684 68.4772 12.474 69.4372 12.474C70.3732 12.474 71.2012 12.678 71.9212 13.086C72.6412 13.494 73.1932 14.058 73.5772 14.778C73.9732 15.486 74.1712 16.29 74.1712 17.19ZM72.4792 16.848C72.4792 16.224 72.3412 15.69 72.0652 15.246C71.7892 14.79 71.4112 14.448 70.9312 14.22C70.4632 13.98 69.9412 13.86 69.3652 13.86C68.5372 13.86 67.8292 14.124 67.2412 14.652C66.6652 15.18 66.3352 15.912 66.2512 16.848H72.4792ZM85.3333 17.19C85.3333 17.502 85.3153 17.832 85.2793 18.18H77.3953C77.4553 19.152 77.7853 19.914 78.3853 20.466C78.9973 21.006 79.7353 21.276 80.5993 21.276C81.3073 21.276 81.8953 21.114 82.3633 20.79C82.8433 20.454 83.1793 20.01 83.3713 19.458H85.1353C84.8713 20.406 84.3433 21.18 83.5513 21.78C82.7593 22.368 81.7753 22.662 80.5993 22.662C79.6633 22.662 78.8233 22.452 78.0793 22.032C77.3473 21.612 76.7713 21.018 76.3513 20.25C75.9313 19.47 75.7213 18.57 75.7213 17.55C75.7213 16.53 75.9253 15.636 76.3333 14.868C76.7413 14.1 77.3113 13.512 78.0433 13.104C78.7873 12.684 79.6393 12.474 80.5993 12.474C81.5353 12.474 82.3633 12.678 83.0833 13.086C83.8033 13.494 84.3553 14.058 84.7393 14.778C85.1353 15.486 85.3333 16.29 85.3333 17.19ZM83.6413 16.848C83.6413 16.224 83.5033 15.69 83.2273 15.246C82.9513 14.79 82.5733 14.448 82.0933 14.22C81.6253 13.98 81.1033 13.86 80.5273 13.86C79.6993 13.86 78.9913 14.124 78.4033 14.652C77.8273 15.18 77.4973 15.912 77.4133 16.848H83.6413ZM96.2002 9.954C97.5682 9.954 98.7502 10.212 99.7462 10.728C100.754 11.232 101.522 11.958 102.05 12.906C102.59 13.854 102.86 14.97 102.86 16.254C102.86 17.538 102.59 18.654 102.05 19.602C101.522 20.538 100.754 21.258 99.7462 21.762C98.7502 22.254 97.5682 22.5 96.2002 22.5H92.2942V9.954H96.2002ZM96.2002 21.15C97.8202 21.15 99.0562 20.724 99.9082 19.872C100.76 19.008 101.186 17.802 101.186 16.254C101.186 14.694 100.754 13.476 99.8902 12.6C99.0382 11.724 97.8082 11.286 96.2002 11.286H93.9322V21.15H96.2002ZM114.021 17.19C114.021 17.502 114.003 17.832 113.967 18.18H106.083C106.143 19.152 106.473 19.914 107.073 20.466C107.685 21.006 108.423 21.276 109.287 21.276C109.995 21.276 110.583 21.114 111.051 20.79C111.531 20.454 111.867 20.01 112.059 19.458H113.823C113.559 20.406 113.031 21.18 112.239 21.78C111.447 22.368 110.463 22.662 109.287 22.662C108.351 22.662 107.511 22.452 106.767 22.032C106.035 21.612 105.459 21.018 105.039 20.25C104.619 19.47 104.409 18.57 104.409 17.55C104.409 16.53 104.613 15.636 105.021 14.868C105.429 14.1 105.999 13.512 106.731 13.104C107.475 12.684 108.327 12.474 109.287 12.474C110.223 12.474 111.051 12.678 111.771 13.086C112.491 13.494 113.043 14.058 113.427 14.778C113.823 15.486 114.021 16.29 114.021 17.19ZM112.329 16.848C112.329 16.224 112.191 15.69 111.915 15.246C111.639 14.79 111.261 14.448 110.781 14.22C110.313 13.98 109.791 13.86 109.215 13.86C108.387 13.86 107.679 14.124 107.091 14.652C106.515 15.18 106.185 15.912 106.101 16.848H112.329ZM117.821 9.18V22.5H116.183V9.18H117.821ZM121.459 11.034C121.147 11.034 120.883 10.926 120.667 10.71C120.451 10.494 120.343 10.23 120.343 9.918C120.343 9.606 120.451 9.342 120.667 9.126C120.883 8.91 121.147 8.802 121.459 8.802C121.759 8.802 122.011 8.91 122.215 9.126C122.431 9.342 122.539 9.606 122.539 9.918C122.539 10.23 122.431 10.494 122.215 10.71C122.011 10.926 121.759 11.034 121.459 11.034ZM122.251 12.636V22.5H120.613V12.636H122.251ZM128.714 20.988L131.774 12.636H133.52L129.65 22.5H127.742L123.872 12.636H125.636L128.714 20.988ZM144.132 17.19C144.132 17.502 144.114 17.832 144.078 18.18H136.194C136.254 19.152 136.584 19.914 137.184 20.466C137.796 21.006 138.534 21.276 139.398 21.276C140.106 21.276 140.694 21.114 141.162 20.79C141.642 20.454 141.978 20.01 142.17 19.458H143.934C143.67 20.406 143.142 21.18 142.35 21.78C141.558 22.368 140.574 22.662 139.398 22.662C138.462 22.662 137.622 22.452 136.878 22.032C136.146 21.612 135.57 21.018 135.15 20.25C134.73 19.47 134.52 18.57 134.52 17.55C134.52 16.53 134.724 15.636 135.132 14.868C135.54 14.1 136.11 13.512 136.842 13.104C137.586 12.684 138.438 12.474 139.398 12.474C140.334 12.474 141.162 12.678 141.882 13.086C142.602 13.494 143.154 14.058 143.538 14.778C143.934 15.486 144.132 16.29 144.132 17.19ZM142.44 16.848C142.44 16.224 142.302 15.69 142.026 15.246C141.75 14.79 141.372 14.448 140.892 14.22C140.424 13.98 139.902 13.86 139.326 13.86C138.498 13.86 137.79 14.124 137.202 14.652C136.626 15.18 136.296 15.912 136.212 16.848H142.44ZM147.932 14.238C148.22 13.674 148.628 13.236 149.156 12.924C149.696 12.612 150.35 12.456 151.118 12.456V14.148H150.686C148.85 14.148 147.932 15.144 147.932 17.136V22.5H146.294V12.636H147.932V14.238ZM161.505 12.636L155.565 27.144H153.873L155.817 22.392L151.839 12.636H153.657L156.753 20.628L159.813 12.636H161.505Z" fill="#383838"/>
</svg>
