<svg width="118" height="32" viewBox="0 0 118 32" fill="none" xmlns="http://www.w3.org/2000/svg">
<path d="M3.45802 25.2185L15.458 30.5518H15.466C15.6337 30.6274 15.8155 30.6664 15.9993 30.6664C16.1832 30.6664 16.365 30.6274 16.5327 30.5518H16.5433L28.5434 25.2185C28.7786 25.1134 28.9784 24.9423 29.1185 24.726C29.2585 24.5098 29.3329 24.2575 29.3327 23.9998V7.99984C29.3264 7.74332 29.249 7.49359 29.1091 7.27843C28.9693 7.06328 28.7725 6.89114 28.5407 6.78118L16.5407 1.44784C16.3703 1.37213 16.1858 1.33301 15.9993 1.33301C15.8129 1.33301 15.6284 1.37213 15.458 1.44784L3.45802 6.78118C3.22627 6.89126 3.02956 7.06343 2.88975 7.27856C2.74994 7.49369 2.6725 7.74336 2.66602 7.99984V23.9998C2.66598 24.2578 2.74079 24.5103 2.88137 24.7266C3.02195 24.9429 3.22226 25.1138 3.45802 25.2185ZM5.33268 10.0518L14.666 14.1998V27.2812L5.33268 23.1332V10.0518ZM26.666 23.1332L17.3327 27.2812V14.1998L26.666 10.0518V23.1332ZM15.9993 4.12518L24.7167 7.99984L15.9993 11.8745L7.28202 7.99984L15.9993 4.12518Z" fill="#F46B5B"/>
<path d="M51.024 9.954V22.5H49.386V9.954H51.024ZM58.6217 12.456C59.8217 12.456 60.7937 12.822 61.5377 13.554C62.2817 14.274 62.6537 15.318 62.6537 16.686V22.5H61.0337V16.92C61.0337 15.936 60.7877 15.186 60.2957 14.67C59.8037 14.142 59.1317 13.878 58.2797 13.878C57.4157 13.878 56.7257 14.148 56.2097 14.688C55.7057 15.228 55.4537 16.014 55.4537 17.046V22.5H53.8157V12.636H55.4537V14.04C55.7777 13.536 56.2157 13.146 56.7677 12.87C57.3317 12.594 57.9497 12.456 58.6217 12.456ZM74.1062 22.626C73.2782 22.626 72.5342 22.482 71.8742 22.194C71.2262 21.894 70.7162 21.486 70.3442 20.97C69.9722 20.442 69.7802 19.836 69.7682 19.152H71.5142C71.5742 19.74 71.8142 20.238 72.2342 20.646C72.6662 21.042 73.2902 21.24 74.1062 21.24C74.8862 21.24 75.4982 21.048 75.9422 20.664C76.3982 20.268 76.6262 19.764 76.6262 19.152C76.6262 18.672 76.4942 18.282 76.2302 17.982C75.9662 17.682 75.6362 17.454 75.2402 17.298C74.8442 17.142 74.3102 16.974 73.6382 16.794C72.8102 16.578 72.1442 16.362 71.6402 16.146C71.1482 15.93 70.7222 15.594 70.3622 15.138C70.0142 14.67 69.8402 14.046 69.8402 13.266C69.8402 12.582 70.0142 11.976 70.3622 11.448C70.7102 10.92 71.1962 10.512 71.8202 10.224C72.4562 9.936 73.1822 9.792 73.9982 9.792C75.1742 9.792 76.1342 10.086 76.8782 10.674C77.6342 11.262 78.0602 12.042 78.1562 13.014H76.3562C76.2962 12.534 76.0442 12.114 75.6002 11.754C75.1562 11.382 74.5682 11.196 73.8362 11.196C73.1522 11.196 72.5942 11.376 72.1622 11.736C71.7302 12.084 71.5142 12.576 71.5142 13.212C71.5142 13.668 71.6402 14.04 71.8922 14.328C72.1562 14.616 72.4742 14.838 72.8462 14.994C73.2302 15.138 73.7642 15.306 74.4482 15.498C75.2762 15.726 75.9422 15.954 76.4462 16.182C76.9502 16.398 77.3822 16.74 77.7422 17.208C78.1022 17.664 78.2822 18.288 78.2822 19.08C78.2822 19.692 78.1202 20.268 77.7962 20.808C77.4722 21.348 76.9922 21.786 76.3562 22.122C75.7202 22.458 74.9702 22.626 74.1062 22.626ZM82.6906 13.986V19.8C82.6906 20.28 82.7926 20.622 82.9966 20.826C83.2006 21.018 83.5546 21.114 84.0586 21.114H85.2646V22.5H83.7886C82.8766 22.5 82.1926 22.29 81.7366 21.87C81.2806 21.45 81.0526 20.76 81.0526 19.8V13.986H79.7746V12.636H81.0526V10.152H82.6906V12.636H85.2646V13.986H82.6906ZM91.5513 22.662C90.6273 22.662 89.7873 22.452 89.0313 22.032C88.2873 21.612 87.6993 21.018 87.2673 20.25C86.8473 19.47 86.6373 18.57 86.6373 17.55C86.6373 16.542 86.8533 15.654 87.2853 14.886C87.7293 14.106 88.3293 13.512 89.0853 13.104C89.8413 12.684 90.6873 12.474 91.6233 12.474C92.5593 12.474 93.4053 12.684 94.1613 13.104C94.9173 13.512 95.5113 14.1 95.9433 14.868C96.3873 15.636 96.6093 16.53 96.6093 17.55C96.6093 18.57 96.3813 19.47 95.9253 20.25C95.4813 21.018 94.8753 21.612 94.1073 22.032C93.3393 22.452 92.4873 22.662 91.5513 22.662ZM91.5513 21.222C92.1393 21.222 92.6913 21.084 93.2073 20.808C93.7233 20.532 94.1373 20.118 94.4493 19.566C94.7733 19.014 94.9353 18.342 94.9353 17.55C94.9353 16.758 94.7793 16.086 94.4673 15.534C94.1553 14.982 93.7473 14.574 93.2433 14.31C92.7393 14.034 92.1933 13.896 91.6053 13.896C91.0053 13.896 90.4533 14.034 89.9493 14.31C89.4573 14.574 89.0613 14.982 88.7613 15.534C88.4613 16.086 88.3113 16.758 88.3113 17.55C88.3113 18.354 88.4553 19.032 88.7433 19.584C89.0433 20.136 89.4393 20.55 89.9313 20.826C90.4233 21.09 90.9633 21.222 91.5513 21.222ZM98.151 17.55C98.151 16.53 98.355 15.642 98.763 14.886C99.171 14.118 99.735 13.524 100.455 13.104C101.187 12.684 102.021 12.474 102.957 12.474C104.169 12.474 105.165 12.768 105.945 13.356C106.737 13.944 107.259 14.76 107.511 15.804H105.747C105.579 15.204 105.249 14.73 104.757 14.382C104.277 14.034 103.677 13.86 102.957 13.86C102.021 13.86 101.265 14.184 100.689 14.832C100.113 15.468 99.825 16.374 99.825 17.55C99.825 18.738 100.113 19.656 100.689 20.304C101.265 20.952 102.021 21.276 102.957 21.276C103.677 21.276 104.277 21.108 104.757 20.772C105.237 20.436 105.567 19.956 105.747 19.332H107.511C107.247 20.34 106.719 21.15 105.927 21.762C105.135 22.362 104.145 22.662 102.957 22.662C102.021 22.662 101.187 22.452 100.455 22.032C99.735 21.612 99.171 21.018 98.763 20.25C98.355 19.482 98.151 18.582 98.151 17.55ZM115.205 22.5L111.335 18.144V22.5H109.697V9.18H111.335V17.01L115.133 12.636H117.419L112.775 17.55L117.437 22.5H115.205Z" fill="#383838"/>
</svg>
